<svg width="1173" height="220" viewBox="0 0 1173 220" fill="none" xmlns="http://www.w3.org/2000/svg">
<path d="M128.5 59.0063C129 46.5063 190.91 -7.37588 307.5 17.8811C536 67.381 682.5 12.5003 830.5 3C978.5 -6.50027 1045 55.5 1046 70.0001" stroke="#FBF1C7" stroke-width="4"/>
<path d="M21.3616 49.2848C16.0813 48.8549 11.452 52.7901 11.0218 58.0743L3.88461 145.734C3.18863 154.282 9.54882 161.776 18.0905 162.471L76.02 167.188L141.116 204.274C144.501 206.203 148.808 205.02 150.735 201.632L173.491 161.637C175.419 158.249 174.237 153.939 170.852 152.01L140.916 134.955L146.302 68.8054C146.72 63.6766 142.904 59.1806 137.779 58.7633L21.3616 49.2848Z" fill="url(#paint0_linear_63_730)"/>
<path d="M1150.87 61.2848C1156.16 60.8549 1160.78 64.7901 1161.21 70.0743L1168.35 157.734C1169.05 166.282 1162.69 173.776 1154.15 174.471L1096.22 179.188L1031.12 216.274C1027.74 218.203 1023.43 217.02 1021.5 213.632L998.745 173.637C996.818 170.249 997.999 165.939 1001.38 164.01L1031.32 146.955L1025.93 80.8054C1025.52 75.6766 1029.33 71.1806 1034.46 70.7633L1150.87 61.2848Z" fill="url(#paint1_linear_63_730)"/>
<path d="M222.513 152.657C219.642 152.657 217.111 152.195 214.921 151.27C212.78 150.345 211.076 149.08 209.811 147.474C208.594 145.819 207.889 143.873 207.694 141.634H215.578C215.773 142.948 216.478 144.019 217.695 144.846C218.912 145.625 220.518 146.014 222.513 146.014H225.652C228.037 146.014 229.837 145.527 231.054 144.554C232.271 143.581 232.879 142.291 232.879 140.685C232.879 139.128 232.319 137.911 231.2 137.035C230.129 136.11 228.523 135.502 226.382 135.21L221.199 134.407C216.916 133.726 213.753 132.509 211.709 130.757C209.714 128.956 208.716 126.304 208.716 122.8C208.716 119.101 209.908 116.254 212.293 114.259C214.726 112.215 218.303 111.193 223.024 111.193H225.798C229.983 111.193 233.317 112.166 235.799 114.113C238.33 116.011 239.765 118.566 240.106 121.778H232.222C232.027 120.61 231.37 119.661 230.251 118.931C229.18 118.201 227.696 117.836 225.798 117.836H223.024C220.737 117.836 219.058 118.274 217.987 119.15C216.965 119.977 216.454 121.218 216.454 122.873C216.454 124.333 216.916 125.428 217.841 126.158C218.766 126.888 220.201 127.399 222.148 127.691L227.477 128.567C232.003 129.2 235.312 130.465 237.405 132.363C239.546 134.212 240.617 136.913 240.617 140.466C240.617 144.311 239.352 147.304 236.821 149.445C234.339 151.586 230.616 152.657 225.652 152.657H222.513ZM251.903 152V98.71H259.787V111.85L259.714 119.515H261.612L259.714 121.34C259.714 118.128 260.663 115.622 262.561 113.821C264.459 112.02 267.087 111.12 270.445 111.12C274.436 111.12 277.624 112.41 280.008 114.989C282.393 117.52 283.585 120.951 283.585 125.282V152H275.701V126.158C275.701 123.53 274.996 121.486 273.584 120.026C272.173 118.566 270.251 117.836 267.817 117.836C265.335 117.836 263.364 118.615 261.904 120.172C260.493 121.681 259.787 123.846 259.787 126.669V152H251.903ZM307.428 152.73C303.243 152.73 299.933 151.659 297.5 149.518C295.115 147.328 293.923 144.359 293.923 140.612C293.923 136.816 295.188 133.847 297.719 131.706C300.298 129.516 303.827 128.421 308.304 128.421H319.473V124.698C319.473 122.508 318.792 120.805 317.429 119.588C316.066 118.371 314.144 117.763 311.662 117.763C309.472 117.763 307.647 118.25 306.187 119.223C304.727 120.148 303.875 121.389 303.632 122.946H295.894C296.332 119.345 297.987 116.473 300.858 114.332C303.778 112.191 307.452 111.12 311.881 111.12C316.65 111.12 320.422 112.337 323.196 114.77C325.97 117.155 327.357 120.415 327.357 124.552V152H319.692V144.627H318.378L319.692 143.167C319.692 146.087 318.573 148.423 316.334 150.175C314.095 151.878 311.127 152.73 307.428 152.73ZM309.764 146.671C312.587 146.671 314.898 145.965 316.699 144.554C318.548 143.094 319.473 141.245 319.473 139.006V133.75H308.45C306.406 133.75 304.776 134.31 303.559 135.429C302.391 136.548 301.807 138.081 301.807 140.028C301.807 142.072 302.513 143.702 303.924 144.919C305.335 146.087 307.282 146.671 309.764 146.671ZM339.665 152V98.71H347.549V127.983H354.63L365.288 111.85H374.194L361.419 131.122L374.413 152H365.361L354.63 134.772H347.549V152H339.665ZM383.218 152V98.71H391.102V111.85L391.029 119.515H392.927L391.029 121.34C391.029 118.128 391.978 115.622 393.876 113.821C395.774 112.02 398.402 111.12 401.76 111.12C405.751 111.12 408.938 112.41 411.323 114.989C413.708 117.52 414.9 120.951 414.9 125.282V152H407.016V126.158C407.016 123.53 406.31 121.486 404.899 120.026C403.488 118.566 401.565 117.836 399.132 117.836C396.65 117.836 394.679 118.615 393.219 120.172C391.808 121.681 391.102 123.846 391.102 126.669V152H383.218ZM426.989 152V144.554L448.67 118.858H427.646V111.85H457.722V119.296L435.749 144.992H458.525V152H426.989ZM486.529 152.657C483.22 152.657 480.348 152.024 477.915 150.759C475.482 149.494 473.608 147.693 472.294 145.357C470.98 143.021 470.323 140.271 470.323 137.108V126.742C470.323 123.53 470.98 120.78 472.294 118.493C473.608 116.157 475.482 114.356 477.915 113.091C480.348 111.826 483.22 111.193 486.529 111.193C489.838 111.193 492.71 111.826 495.143 113.091C497.576 114.356 499.45 116.157 500.764 118.493C502.078 120.78 502.735 123.53 502.735 126.742V137.108C502.735 140.271 502.078 143.021 500.764 145.357C499.45 147.693 497.576 149.494 495.143 150.759C492.71 152.024 489.838 152.657 486.529 152.657ZM486.529 145.722C489.206 145.722 491.274 144.992 492.734 143.532C494.194 142.023 494.924 139.882 494.924 137.108V126.742C494.924 123.919 494.194 121.778 492.734 120.318C491.274 118.858 489.206 118.128 486.529 118.128C483.901 118.128 481.833 118.858 480.324 120.318C478.864 121.778 478.134 123.919 478.134 126.742V137.108C478.134 139.882 478.864 142.023 480.324 143.532C481.833 144.992 483.901 145.722 486.529 145.722ZM527.453 152.73C523.414 152.73 520.178 151.367 517.744 148.642C515.311 145.917 514.094 142.242 514.094 137.619V126.304C514.094 121.632 515.311 117.933 517.744 115.208C520.178 112.483 523.414 111.12 527.453 111.12C530.763 111.12 533.391 112.045 535.337 113.894C537.284 115.695 538.257 118.177 538.257 121.34L536.578 119.515H538.403L538.184 110.171V98.71H546.068V152H538.257V144.335H536.578L538.257 142.51C538.257 145.673 537.284 148.18 535.337 150.029C533.391 151.83 530.763 152.73 527.453 152.73ZM530.154 145.868C532.636 145.868 534.583 145.114 535.994 143.605C537.454 142.048 538.184 139.906 538.184 137.181V126.669C538.184 123.944 537.454 121.827 535.994 120.318C534.583 118.761 532.636 117.982 530.154 117.982C527.575 117.982 525.555 118.736 524.095 120.245C522.635 121.705 521.905 123.846 521.905 126.669V137.181C521.905 140.004 522.635 142.169 524.095 143.678C525.555 145.138 527.575 145.868 530.154 145.868ZM563.341 118.055L569.181 95.352H579.693L570.203 118.055H563.341ZM616.456 152.657C613.585 152.657 611.054 152.195 608.864 151.27C606.723 150.345 605.02 149.08 603.754 147.474C602.538 145.819 601.832 143.873 601.637 141.634H609.521C609.716 142.948 610.422 144.019 611.638 144.846C612.855 145.625 614.461 146.014 616.456 146.014H619.595C621.98 146.014 623.781 145.527 624.997 144.554C626.214 143.581 626.822 142.291 626.822 140.685C626.822 139.128 626.263 137.911 625.143 137.035C624.073 136.11 622.467 135.502 620.325 135.21L615.142 134.407C610.86 133.726 607.696 132.509 605.652 130.757C603.657 128.956 602.659 126.304 602.659 122.8C602.659 119.101 603.852 116.254 606.236 114.259C608.67 112.215 612.247 111.193 616.967 111.193H619.741C623.927 111.193 627.26 112.166 629.742 114.113C632.273 116.011 633.709 118.566 634.049 121.778H626.165C625.971 120.61 625.314 119.661 624.194 118.931C623.124 118.201 621.639 117.836 619.741 117.836H616.967C614.68 117.836 613.001 118.274 611.93 119.15C610.908 119.977 610.397 121.218 610.397 122.873C610.397 124.333 610.86 125.428 611.784 126.158C612.709 126.888 614.145 127.399 616.091 127.691L621.42 128.567C625.946 129.2 629.256 130.465 631.348 132.363C633.49 134.212 634.56 136.913 634.56 140.466C634.56 144.311 633.295 147.304 630.764 149.445C628.282 151.586 624.559 152.657 619.595 152.657H616.456ZM691.735 152L685.53 111.85H692.173L695.896 138.349C696.091 139.566 696.261 140.928 696.407 142.437C696.602 143.897 696.748 145.114 696.845 146.087C696.943 145.114 697.089 143.897 697.283 142.437C697.527 140.977 697.746 139.614 697.94 138.349L702.101 111.85H708.744L712.832 138.349C713.027 139.614 713.222 141.001 713.416 142.51C713.66 143.97 713.83 145.187 713.927 146.16C714.025 145.138 714.171 143.897 714.365 142.437C714.609 140.928 714.828 139.566 715.022 138.349L718.818 111.85H725.242L718.818 152H710.496L706.554 125.793C706.36 124.43 706.141 122.995 705.897 121.486C705.654 119.929 705.484 118.688 705.386 117.763C705.24 118.688 705.046 119.929 704.802 121.486C704.608 122.995 704.413 124.43 704.218 125.793L700.13 152H691.735ZM749.158 152.73C745.897 152.73 743.026 152.097 740.544 150.832C738.11 149.518 736.237 147.693 734.923 145.357C733.609 143.021 732.952 140.296 732.952 137.181V126.669C732.952 123.506 733.609 120.78 734.923 118.493C736.237 116.157 738.11 114.356 740.544 113.091C743.026 111.777 745.897 111.12 749.158 111.12C752.467 111.12 755.338 111.777 757.772 113.091C760.205 114.356 762.079 116.157 763.393 118.493C764.707 120.78 765.364 123.506 765.364 126.669V133.823H740.544V137.181C740.544 140.15 741.274 142.413 742.734 143.97C744.242 145.527 746.408 146.306 749.231 146.306C751.518 146.306 753.367 145.917 754.779 145.138C756.19 144.311 757.066 143.118 757.407 141.561H765.218C764.634 144.968 762.882 147.693 759.962 149.737C757.042 151.732 753.44 152.73 749.158 152.73ZM757.772 129.078V126.596C757.772 123.676 757.042 121.413 755.582 119.807C754.122 118.201 751.98 117.398 749.158 117.398C746.384 117.398 744.242 118.201 742.734 119.807C741.274 121.413 740.544 123.7 740.544 126.669V128.494L758.356 128.421L757.772 129.078ZM795.776 152.73C792.467 152.73 789.839 151.83 787.892 150.029C785.946 148.18 784.972 145.673 784.972 142.51L786.651 144.335H784.972V152H777.161V98.71H785.045V110.171L784.826 119.515H786.651L784.972 121.34C784.972 118.177 785.946 115.695 787.892 113.894C789.888 112.045 792.516 111.12 795.776 111.12C799.816 111.12 803.052 112.483 805.485 115.208C807.919 117.933 809.135 121.632 809.135 126.304V137.619C809.135 142.242 807.919 145.917 805.485 148.642C803.052 151.367 799.816 152.73 795.776 152.73ZM793.075 145.868C795.655 145.868 797.674 145.138 799.134 143.678C800.594 142.169 801.324 140.004 801.324 137.181V126.669C801.324 123.846 800.594 121.705 799.134 120.245C797.674 118.736 795.655 117.982 793.075 117.982C790.593 117.982 788.622 118.761 787.162 120.318C785.751 121.827 785.045 123.944 785.045 126.669V137.181C785.045 139.906 785.751 142.048 787.162 143.605C788.622 145.114 790.593 145.868 793.075 145.868ZM835.314 152.657C832.442 152.657 829.912 152.195 827.722 151.27C825.58 150.345 823.877 149.08 822.612 147.474C821.395 145.819 820.689 143.873 820.495 141.634H828.379C828.573 142.948 829.279 144.019 830.496 144.846C831.712 145.625 833.318 146.014 835.314 146.014H838.453C840.837 146.014 842.638 145.527 843.855 144.554C845.071 143.581 845.68 142.291 845.68 140.685C845.68 139.128 845.12 137.911 844.001 137.035C842.93 136.11 841.324 135.502 839.183 135.21L834 134.407C829.717 133.726 826.554 132.509 824.51 130.757C822.514 128.956 821.517 126.304 821.517 122.8C821.517 119.101 822.709 116.254 825.094 114.259C827.527 112.215 831.104 111.193 835.825 111.193H838.599C842.784 111.193 846.118 112.166 848.6 114.113C851.13 116.011 852.566 118.566 852.907 121.778H845.023C844.828 120.61 844.171 119.661 843.052 118.931C841.981 118.201 840.497 117.836 838.599 117.836H835.825C833.537 117.836 831.858 118.274 830.788 119.15C829.766 119.977 829.255 121.218 829.255 122.873C829.255 124.333 829.717 125.428 830.642 126.158C831.566 126.888 833.002 127.399 834.949 127.691L840.278 128.567C844.804 129.2 848.113 130.465 850.206 132.363C852.347 134.212 853.418 136.913 853.418 140.466C853.418 144.311 852.152 147.304 849.622 149.445C847.14 151.586 843.417 152.657 838.453 152.657H835.314ZM864.485 152V144.846H878.574V119.004H866.31V111.85H886.239V144.846H899.16V152H864.485ZM881.64 104.915C879.937 104.915 878.574 104.477 877.552 103.601C876.53 102.676 876.019 101.46 876.019 99.951C876.019 98.3937 876.53 97.177 877.552 96.301C878.574 95.3763 879.937 94.914 881.64 94.914C883.344 94.914 884.706 95.3763 885.728 96.301C886.75 97.177 887.261 98.3937 887.261 99.951C887.261 101.46 886.75 102.676 885.728 103.601C884.706 104.477 883.344 104.915 881.64 104.915ZM928.624 152C924.974 152 922.127 151.002 920.083 149.007C918.039 147.012 917.017 144.238 917.017 140.685V119.004H905.921V111.85H917.017V100.535H924.901V111.85H940.596V119.004H924.901V140.685C924.901 143.459 926.239 144.846 928.916 144.846H939.866V152H928.624ZM968.015 152.73C964.755 152.73 961.883 152.097 959.401 150.832C956.968 149.518 955.094 147.693 953.78 145.357C952.466 143.021 951.809 140.296 951.809 137.181V126.669C951.809 123.506 952.466 120.78 953.78 118.493C955.094 116.157 956.968 114.356 959.401 113.091C961.883 111.777 964.755 111.12 968.015 111.12C971.325 111.12 974.196 111.777 976.629 113.091C979.063 114.356 980.936 116.157 982.25 118.493C983.564 120.78 984.221 123.506 984.221 126.669V133.823H959.401V137.181C959.401 140.15 960.131 142.413 961.591 143.97C963.1 145.527 965.266 146.306 968.088 146.306C970.376 146.306 972.225 145.917 973.636 145.138C975.048 144.311 975.924 143.118 976.264 141.561H984.075C983.491 144.968 981.739 147.693 978.819 149.737C975.899 151.732 972.298 152.73 968.015 152.73ZM976.629 129.078V126.596C976.629 123.676 975.899 121.413 974.439 119.807C972.979 118.201 970.838 117.398 968.015 117.398C965.241 117.398 963.1 118.201 961.591 119.807C960.131 121.413 959.401 123.7 959.401 126.669V128.494L977.213 128.421L976.629 129.078Z" fill="#EBDBB2"/>
<defs>
<linearGradient id="paint0_linear_63_730" x1="126.688" y1="46.7404" x2="79.8532" y2="185.319" gradientUnits="userSpaceOnUse">
<stop stop-color="#FBF1C7"/>
<stop offset="1" stop-color="#A89984"/>
</linearGradient>
<linearGradient id="paint1_linear_63_730" x1="1045.55" y1="58.7404" x2="1092.38" y2="197.319" gradientUnits="userSpaceOnUse">
<stop stop-color="#FBF1C7"/>
<stop offset="1" stop-color="#A89984"/>
</linearGradient>
</defs>
</svg>
