<svg width="1666" height="360" viewBox="0 0 1666 360" fill="none" xmlns="http://www.w3.org/2000/svg">
<path d="M372.075 248.656C367.324 248.656 363.136 247.893 359.512 246.367C355.969 244.84 353.151 242.752 351.057 240.101C349.044 237.37 347.876 234.158 347.554 230.463H360.6C360.922 232.631 362.089 234.399 364.102 235.764C366.116 237.049 368.773 237.692 372.075 237.692H377.269C381.214 237.692 384.194 236.889 386.207 235.282C388.22 233.676 389.227 231.547 389.227 228.896C389.227 226.326 388.301 224.318 386.449 222.872C384.677 221.346 382.02 220.342 378.477 219.86L369.9 218.535C362.814 217.41 357.58 215.402 354.198 212.511C350.896 209.539 349.245 205.161 349.245 199.378C349.245 193.273 351.218 188.575 355.164 185.281C359.19 181.908 365.109 180.221 372.92 180.221H377.51C384.435 180.221 389.952 181.828 394.058 185.04C398.246 188.173 400.621 192.39 401.185 197.691H388.14C387.818 195.763 386.731 194.197 384.878 192.992C383.107 191.788 380.651 191.185 377.51 191.185H372.92C369.135 191.185 366.357 191.908 364.586 193.354C362.895 194.719 362.049 196.768 362.049 199.498C362.049 201.908 362.814 203.715 364.344 204.92C365.874 206.125 368.25 206.968 371.471 207.45L380.288 208.896C387.777 209.94 393.253 212.029 396.716 215.161C400.259 218.214 402.031 222.671 402.031 228.535C402.031 234.88 399.937 239.82 395.75 243.354C391.643 246.889 385.482 248.656 377.269 248.656H372.075Z" fill="#EBDBB2"/>
<path d="M420.706 247.571V159.618H433.751V181.305L433.63 193.956H436.771L433.63 196.968C433.63 191.667 435.201 187.53 438.341 184.559C441.482 181.587 445.83 180.101 451.387 180.101C457.99 180.101 463.264 182.229 467.21 186.486C471.156 190.663 473.129 196.326 473.129 203.474V247.571H460.084V204.92C460.084 200.583 458.916 197.209 456.581 194.8C454.245 192.39 451.065 191.185 447.038 191.185C442.931 191.185 439.67 192.47 437.254 195.041C434.919 197.531 433.751 201.105 433.751 205.764V247.571H420.706Z" fill="#EBDBB2"/>
<path d="M512.58 248.776C505.655 248.776 500.179 247.009 496.153 243.475C492.207 239.86 490.234 234.961 490.234 228.776C490.234 222.511 492.328 217.611 496.515 214.077C500.783 210.462 506.621 208.655 514.03 208.655H532.511V202.511C532.511 198.896 531.383 196.085 529.128 194.077C526.874 192.069 523.693 191.065 519.586 191.065C515.962 191.065 512.942 191.868 510.527 193.474C508.111 195 506.702 197.049 506.299 199.619H493.495C494.22 193.675 496.958 188.936 501.709 185.402C506.541 181.868 512.62 180.101 519.948 180.101C527.84 180.101 534.081 182.109 538.671 186.125C543.261 190.061 545.556 195.442 545.556 202.27V247.571H532.873V235.403H530.699L532.873 232.993C532.873 237.812 531.021 241.668 527.317 244.559C523.612 247.371 518.7 248.776 512.58 248.776ZM516.445 238.776C521.116 238.776 524.941 237.611 527.92 235.282C530.98 232.872 532.511 229.82 532.511 226.125V217.451H514.271C510.889 217.451 508.191 218.374 506.178 220.222C504.246 222.069 503.279 224.599 503.279 227.812C503.279 231.186 504.447 233.876 506.782 235.885C509.117 237.812 512.339 238.776 516.445 238.776Z" fill="#EBDBB2"/>
<path d="M565.922 247.571V159.618H578.968V207.932H590.684L608.32 181.305H623.056L601.918 213.113L623.418 247.571H608.44L590.684 219.137H578.968V247.571H565.922Z" fill="#EBDBB2"/>
<path d="M637.987 247.571V159.618H651.032V181.305L650.911 193.956H654.052L650.911 196.968C650.911 191.667 652.482 187.53 655.622 184.559C658.763 181.587 663.111 180.101 668.668 180.101C675.271 180.101 680.545 182.229 684.491 186.486C688.437 190.663 690.41 196.326 690.41 203.474V247.571H677.364V204.92C677.364 200.583 676.197 197.209 673.862 194.8C671.526 192.39 668.345 191.185 664.319 191.185C660.212 191.185 656.951 192.47 654.535 195.041C652.2 197.531 651.032 201.105 651.032 205.764V247.571H637.987Z" fill="#EBDBB2"/>
<path d="M710.414 247.571V235.282L746.288 192.872H711.501V181.305H761.266V193.595L724.909 236.005H762.595V247.571H710.414Z" fill="#EBDBB2"/>
<path d="M808.931 248.656C803.456 248.656 798.705 247.612 794.678 245.523C790.652 243.435 787.552 240.463 785.377 236.607C783.203 232.752 782.116 228.214 782.116 222.993V205.884C782.116 200.583 783.203 196.045 785.377 192.269C787.552 188.414 790.652 185.442 794.678 183.354C798.705 181.265 803.456 180.221 808.931 180.221C814.407 180.221 819.158 181.265 823.185 183.354C827.211 185.442 830.311 188.414 832.486 192.269C834.66 196.045 835.747 200.583 835.747 205.884V222.993C835.747 228.214 834.66 232.752 832.486 236.607C830.311 240.463 827.211 243.435 823.185 245.523C819.158 247.612 814.407 248.656 808.931 248.656ZM808.931 237.21C813.36 237.21 816.783 236.005 819.199 233.595C821.614 231.105 822.822 227.571 822.822 222.993V205.884C822.822 201.225 821.614 197.691 819.199 195.282C816.783 192.872 813.36 191.667 808.931 191.667C804.583 191.667 801.161 192.872 798.664 195.282C796.248 197.691 795.041 201.225 795.041 205.884V222.993C795.041 227.571 796.248 231.105 798.664 233.595C801.161 236.005 804.583 237.21 808.931 237.21Z" fill="#EBDBB2"/>
<path d="M876.648 248.776C869.964 248.776 864.609 246.527 860.583 242.029C856.556 237.531 854.543 231.467 854.543 223.836V205.161C854.543 197.45 856.556 191.346 860.583 186.848C864.609 182.35 869.964 180.101 876.648 180.101C882.123 180.101 886.472 181.627 889.693 184.679C892.914 187.651 894.525 191.747 894.525 196.968L891.746 193.956H894.766L894.404 178.534V159.618H907.449V247.571H894.525V234.921H891.746L894.525 231.909C894.525 237.13 892.914 241.266 889.693 244.318C886.472 247.29 882.123 248.776 876.648 248.776ZM881.117 237.451C885.224 237.451 888.445 236.206 890.78 233.716C893.196 231.145 894.404 227.611 894.404 223.113V205.764C894.404 201.266 893.196 197.772 890.78 195.282C888.445 192.711 885.224 191.426 881.117 191.426C876.849 191.426 873.507 192.671 871.091 195.161C868.675 197.571 867.468 201.105 867.468 205.764V223.113C867.468 227.772 868.675 231.346 871.091 233.836C873.507 236.246 876.849 237.451 881.117 237.451Z" fill="#EBDBB2"/>
<path d="M936.029 191.547L945.692 154.076H963.086L947.383 191.547H936.029Z" fill="#EBDBB2"/>
<path d="M1023.92 248.656C1019.17 248.656 1014.98 247.893 1011.36 246.367C1007.81 244.84 1004.99 242.752 1002.9 240.101C1000.89 237.37 999.719 234.158 999.397 230.463H1012.44C1012.76 232.631 1013.93 234.399 1015.95 235.764C1017.96 237.049 1020.62 237.692 1023.92 237.692H1029.11C1033.06 237.692 1036.04 236.889 1038.05 235.282C1040.06 233.676 1041.07 231.547 1041.07 228.896C1041.07 226.326 1040.14 224.318 1038.29 222.872C1036.52 221.346 1033.86 220.342 1030.32 219.86L1021.74 218.535C1014.66 217.41 1009.42 215.402 1006.04 212.511C1002.74 209.539 1001.09 205.161 1001.09 199.378C1001.09 193.273 1003.06 188.575 1007.01 185.281C1011.03 181.908 1016.95 180.221 1024.76 180.221H1029.35C1036.28 180.221 1041.79 181.828 1045.9 185.04C1050.09 188.173 1052.46 192.39 1053.03 197.691H1039.98C1039.66 195.763 1038.57 194.197 1036.72 192.992C1034.95 191.788 1032.49 191.185 1029.35 191.185H1024.76C1020.98 191.185 1018.2 191.908 1016.43 193.354C1014.74 194.719 1013.89 196.768 1013.89 199.498C1013.89 201.908 1014.66 203.715 1016.19 204.92C1017.72 206.125 1020.09 206.968 1023.31 207.45L1032.13 208.896C1039.62 209.94 1045.1 212.029 1048.56 215.161C1052.1 218.214 1053.87 222.671 1053.87 228.535C1053.87 234.88 1051.78 239.82 1047.59 243.354C1043.49 246.889 1037.33 248.656 1029.11 248.656H1023.92Z" fill="#EBDBB2"/>
<path d="M1180.61 247.571C1176.5 247.571 1172.92 246.768 1169.86 245.162C1166.8 243.475 1164.38 241.105 1162.61 238.053C1160.92 235.001 1160.07 231.467 1160.07 227.451V171.426H1138.33V159.618H1173.12V227.451C1173.12 230.021 1173.84 232.069 1175.29 233.595C1176.74 235.041 1178.72 235.764 1181.21 235.764H1201.75V247.571H1180.61Z" fill="#EBDBB2"/>
<path d="M1236.85 248.776C1229.92 248.776 1224.45 247.009 1220.42 243.475C1216.48 239.86 1214.5 234.961 1214.5 228.776C1214.5 222.511 1216.6 217.611 1220.78 214.077C1225.05 210.462 1230.89 208.655 1238.3 208.655H1256.78V202.511C1256.78 198.896 1255.65 196.085 1253.4 194.077C1251.14 192.069 1247.96 191.065 1243.86 191.065C1240.23 191.065 1237.21 191.868 1234.8 193.474C1232.38 195 1230.97 197.049 1230.57 199.619H1217.76C1218.49 193.675 1221.23 188.936 1225.98 185.402C1230.81 181.868 1236.89 180.101 1244.22 180.101C1252.11 180.101 1258.35 182.109 1262.94 186.125C1267.53 190.061 1269.83 195.442 1269.83 202.27V247.571H1257.14V235.403H1254.97L1257.14 232.993C1257.14 237.812 1255.29 241.668 1251.59 244.559C1247.88 247.371 1242.97 248.776 1236.85 248.776ZM1240.72 238.776C1245.39 238.776 1249.21 237.611 1252.19 235.282C1255.25 232.872 1256.78 229.82 1256.78 226.125V217.451H1238.54C1235.16 217.451 1232.46 218.374 1230.45 220.222C1228.52 222.069 1227.55 224.599 1227.55 227.812C1227.55 231.186 1228.72 233.876 1231.05 235.885C1233.39 237.812 1236.61 238.776 1240.72 238.776Z" fill="#EBDBB2"/>
<path d="M1320.63 248.776C1315.16 248.776 1310.81 247.29 1307.59 244.318C1304.36 241.266 1302.75 237.13 1302.75 231.909L1305.53 234.921H1302.75V247.571H1289.83V159.618H1302.87V178.534L1302.51 193.956H1305.53L1302.75 196.968C1302.75 191.747 1304.36 187.651 1307.59 184.679C1310.89 181.627 1315.24 180.101 1320.63 180.101C1327.31 180.101 1332.67 182.35 1336.7 186.848C1340.72 191.346 1342.74 197.45 1342.74 205.161V223.836C1342.74 231.467 1340.72 237.531 1336.7 242.029C1332.67 246.527 1327.31 248.776 1320.63 248.776ZM1316.16 237.451C1320.43 237.451 1323.77 236.246 1326.19 233.836C1328.6 231.346 1329.81 227.772 1329.81 223.113V205.764C1329.81 201.105 1328.6 197.571 1326.19 195.161C1323.77 192.671 1320.43 191.426 1316.16 191.426C1312.05 191.426 1308.79 192.711 1306.38 195.282C1304.04 197.772 1302.87 201.266 1302.87 205.764V223.113C1302.87 227.611 1304.04 231.145 1306.38 233.716C1308.79 236.206 1312.05 237.451 1316.16 237.451Z" fill="#EBDBB2"/>
<path d="M213.812 93.6434C214.642 72.8759 317.499 -16.6442 511.203 25.3178C890.834 107.557 918.247 19.712 1164.14 3.92818C1410.02 -11.8556 1456.54 88.6594 1461.53 112.75" stroke="#FBF1C7" stroke-width="4"/>
<path d="M35.8112 77.4923C27.0384 76.778 19.3473 83.316 18.6325 92.0953L6.77479 237.734C5.6185 251.935 16.1853 264.385 30.3765 265.54L126.621 273.376L234.771 334.992C240.395 338.196 247.551 336.231 250.753 330.602L288.56 264.154C291.762 258.525 289.799 251.365 284.175 248.161L234.44 219.826L243.388 109.924C244.082 101.403 237.742 93.9332 229.227 93.24L35.8112 77.4923Z" fill="url(#paint0_linear_62_723)"/>
<path d="M1629.95 97.4288C1638.72 96.7145 1646.41 103.253 1647.13 112.032L1658.99 257.67C1660.14 271.872 1649.58 284.321 1635.39 285.477L1539.14 293.313L1430.99 354.929C1425.37 358.133 1418.21 356.168 1415.01 350.539L1377.2 284.091C1374 278.462 1375.96 271.302 1381.59 268.097L1431.32 239.762L1422.37 129.861C1421.68 121.339 1428.02 113.87 1436.54 113.176L1629.95 97.4288Z" fill="url(#paint1_linear_62_723)"/>
<defs>
<linearGradient id="paint0_linear_62_723" x1="210.802" y1="73.2649" x2="132.989" y2="303.499" gradientUnits="userSpaceOnUse">
<stop stop-color="#FBF1C7"/>
<stop offset="1" stop-color="#A89984"/>
</linearGradient>
<linearGradient id="paint1_linear_62_723" x1="1454.96" y1="93.2015" x2="1532.77" y2="323.436" gradientUnits="userSpaceOnUse">
<stop stop-color="#FBF1C7"/>
<stop offset="1" stop-color="#A89984"/>
</linearGradient>
</defs>
</svg>
